<svg width="194" height="134" viewBox="0 0 194 134" fill="none" xmlns="http://www.w3.org/2000/svg">
<g clip-path="url(#clip0_186_1452)">
<path d="M122.155 37.8242H98.1989V32.6172C98.1989 32.2869 98.0684 31.9701 97.8359 31.7365C97.6035 31.503 97.2883 31.3717 96.9596 31.3717H89.925V25.8253C89.925 25.6174 89.8428 25.4179 89.6965 25.2709C89.5502 25.1239 89.3518 25.0413 89.1448 25.0413H80.0833C79.8764 25.0413 79.6779 25.1239 79.5316 25.2709C79.3853 25.4179 79.3031 25.6174 79.3031 25.8253V31.3736H71.0329C70.7042 31.3736 70.389 31.5048 70.1566 31.7384C69.9242 31.972 69.7936 32.2888 69.7936 32.6191V37.826H46.9503C46.8838 37.8265 46.8202 37.8534 46.7733 37.9009C46.7265 37.9483 46.7002 38.0124 46.7002 38.0792V107.201C46.7002 107.268 46.7265 107.332 46.7733 107.379C46.8202 107.426 46.8838 107.453 46.9503 107.454H62.1319C62.1987 107.454 62.2628 107.427 62.3101 107.38C62.3573 107.332 62.3839 107.268 62.3839 107.201V97.9009C62.3844 97.8339 62.4111 97.7698 62.4582 97.7224C62.5054 97.675 62.5692 97.6482 62.6358 97.6477H69.0489C69.1156 97.6482 69.1794 97.675 69.2265 97.7224C69.2737 97.7698 69.3004 97.8339 69.3009 97.9009V107.201C69.3009 107.268 69.3272 107.332 69.374 107.379C69.4209 107.426 69.4845 107.453 69.551 107.454H99.5502C99.6169 107.453 99.6807 107.427 99.7279 107.379C99.775 107.332 99.8017 107.268 99.8022 107.201V97.9009C99.8022 97.8341 99.8285 97.77 99.8753 97.7226C99.9222 97.6751 99.9858 97.6482 100.052 97.6477H106.465C106.532 97.6477 106.596 97.6744 106.644 97.7219C106.691 97.7694 106.717 97.8338 106.717 97.9009V107.201C106.718 107.268 106.745 107.332 106.792 107.379C106.839 107.427 106.903 107.453 106.969 107.454H122.151C122.218 107.453 122.281 107.427 122.329 107.379C122.376 107.332 122.402 107.268 122.403 107.201V38.0774C122.402 38.011 122.376 37.9474 122.33 37.9002C122.284 37.8529 122.221 37.8256 122.155 37.8242ZM59.6663 94.4178C59.6663 94.4844 59.64 94.5484 59.5931 94.5955C59.5462 94.6426 59.4826 94.6691 59.4162 94.6691H50.0393C50.0063 94.6694 49.9735 94.663 49.943 94.6505C49.9124 94.638 49.8846 94.6195 49.8612 94.5962C49.8378 94.5728 49.8192 94.545 49.8065 94.5144C49.7938 94.4838 49.7873 94.4509 49.7873 94.4178V91.2084C49.7873 91.1752 49.7938 91.1423 49.8065 91.1115C49.8191 91.0808 49.8377 91.0529 49.8611 91.0294C49.8845 91.0059 49.9123 90.9872 49.9428 90.9745C49.9734 90.9618 50.0062 90.9552 50.0393 90.9552H59.4218C59.4883 90.9557 59.5519 90.9826 59.5988 91.0301C59.6456 91.0775 59.6719 91.1416 59.6719 91.2084L59.6663 94.4178ZM59.6663 86.1009C59.6666 86.1341 59.6603 86.167 59.6478 86.1977C59.6354 86.2284 59.617 86.2563 59.5937 86.2799C59.5705 86.3034 59.5428 86.3221 59.5124 86.3348C59.4819 86.3476 59.4492 86.3541 59.4162 86.3541H50.0393C50.0061 86.3544 49.9732 86.348 49.9425 86.3354C49.9118 86.3227 49.884 86.3041 49.8605 86.2805C49.8371 86.257 49.8185 86.229 49.806 86.1981C49.7934 86.1673 49.787 86.1342 49.7873 86.1009V82.8841C49.787 82.8508 49.7934 82.8177 49.806 82.7869C49.8185 82.7561 49.8371 82.728 49.8605 82.7045C49.884 82.6809 49.9118 82.6623 49.9425 82.6496C49.9732 82.637 50.0061 82.6306 50.0393 82.6309H59.4218C59.4548 82.6309 59.4875 82.6374 59.518 82.6502C59.5484 82.6629 59.5761 82.6816 59.5993 82.7052C59.6226 82.7287 59.641 82.7566 59.6534 82.7873C59.6659 82.818 59.6722 82.8509 59.6719 82.8841L59.6663 86.1009ZM59.6663 77.7859C59.6663 77.8528 59.64 77.9169 59.5932 77.9643C59.5463 78.0118 59.4827 78.0387 59.4162 78.0392H50.0393C50.0062 78.0392 49.9734 78.0326 49.9428 78.0199C49.9123 78.0071 49.8845 77.9885 49.8611 77.965C49.8377 77.9415 49.8191 77.9136 49.8065 77.8828C49.7938 77.8521 49.7873 77.8192 49.7873 77.7859V74.5672C49.7873 74.534 49.7938 74.5011 49.8065 74.4703C49.8191 74.4396 49.8377 74.4117 49.8611 74.3882C49.8845 74.3647 49.9123 74.346 49.9428 74.3333C49.9734 74.3206 50.0062 74.314 50.0393 74.314H59.4218C59.4883 74.3145 59.5519 74.3414 59.5988 74.3888C59.6456 74.4363 59.6719 74.5004 59.6719 74.5672L59.6663 77.7859ZM59.6663 69.4691C59.6666 69.5023 59.6603 69.5351 59.6478 69.5658C59.6354 69.5966 59.617 69.6245 59.5937 69.648C59.5705 69.6716 59.5428 69.6902 59.5124 69.703C59.4819 69.7157 59.4492 69.7223 59.4162 69.7223H50.0393C50.0061 69.7226 49.9732 69.7162 49.9425 69.7035C49.9118 69.6909 49.884 69.6723 49.8605 69.6487C49.8371 69.6251 49.8185 69.5971 49.806 69.5663C49.7934 69.5354 49.787 69.5024 49.7873 69.4691V66.2616C49.787 66.2283 49.7934 66.1953 49.806 66.1644C49.8185 66.1336 49.8371 66.1056 49.8605 66.082C49.884 66.0585 49.9118 66.0398 49.9425 66.0272C49.9732 66.0145 50.0061 66.0082 50.0393 66.0084H59.4218C59.4548 66.0084 59.4875 66.015 59.518 66.0277C59.5484 66.0405 59.5761 66.0592 59.5993 66.0827C59.6226 66.1062 59.641 66.1342 59.6534 66.1649C59.6659 66.1956 59.6722 66.2285 59.6719 66.2616L59.6663 69.4691ZM59.6663 61.1541C59.6663 61.2209 59.64 61.2851 59.5932 61.3325C59.5463 61.3799 59.4827 61.4068 59.4162 61.4073H50.0393C50.0062 61.4073 49.9734 61.4008 49.9428 61.3881C49.9123 61.3753 49.8845 61.3567 49.8611 61.3332C49.8377 61.3097 49.8191 61.2817 49.8065 61.251C49.7938 61.2203 49.7873 61.1874 49.7873 61.1541V57.9354C49.7873 57.9022 49.7938 57.8694 49.8065 57.8388C49.8192 57.8082 49.8378 57.7804 49.8612 57.757C49.8846 57.7337 49.9124 57.7152 49.943 57.7027C49.9735 57.6901 50.0063 57.6838 50.0393 57.6841H59.4218C59.4882 57.6841 59.5518 57.7105 59.5987 57.7577C59.6456 57.8048 59.6719 57.8687 59.6719 57.9354L59.6663 61.1541ZM59.6663 52.8391C59.6663 52.9058 59.64 52.9697 59.5931 53.0169C59.5462 53.064 59.4826 53.0905 59.4162 53.0905H50.0393C50.0063 53.0907 49.9735 53.0844 49.943 53.0719C49.9124 53.0594 49.8846 53.0409 49.8612 53.0175C49.8378 52.9942 49.8192 52.9664 49.8065 52.9357C49.7938 52.9051 49.7873 52.8723 49.7873 52.8391V49.6204C49.7873 49.5872 49.7938 49.5542 49.8065 49.5235C49.8191 49.4928 49.8377 49.4649 49.8611 49.4414C49.8845 49.4179 49.9123 49.3992 49.9428 49.3865C49.9734 49.3738 50.0062 49.3672 50.0393 49.3672H59.4218C59.4883 49.3677 59.5519 49.3946 59.5988 49.442C59.6456 49.4895 59.6719 49.5536 59.6719 49.6204L59.6663 52.8391ZM59.6663 44.5223C59.6666 44.5554 59.6603 44.5883 59.6478 44.619C59.6354 44.6497 59.617 44.6777 59.5937 44.7012C59.5705 44.7248 59.5428 44.7434 59.5124 44.7562C59.4819 44.7689 59.4492 44.7755 59.4162 44.7755H50.0393C50.0061 44.7757 49.9732 44.7694 49.9425 44.7567C49.9118 44.7441 49.884 44.7254 49.8605 44.7019C49.8371 44.6783 49.8185 44.6503 49.806 44.6195C49.7934 44.5886 49.787 44.5556 49.7873 44.5223V41.3148C49.787 41.2815 49.7934 41.2485 49.806 41.2176C49.8185 41.1868 49.8371 41.1588 49.8605 41.1352C49.884 41.1117 49.9118 41.093 49.9425 41.0804C49.9732 41.0677 50.0061 41.0614 50.0393 41.0616H59.4218C59.4548 41.0616 59.4875 41.0682 59.518 41.0809C59.5484 41.0937 59.5761 41.1124 59.5993 41.1359C59.6226 41.1594 59.641 41.1874 59.6534 41.2181C59.6659 41.2488 59.6722 41.2817 59.6719 41.3148L59.6663 44.5223ZM81.8975 94.4159C81.8975 94.4491 81.8909 94.4819 81.8783 94.5125C81.8656 94.5431 81.847 94.5709 81.8236 94.5943C81.8001 94.6177 81.7723 94.6361 81.7418 94.6486C81.7112 94.6612 81.6785 94.6675 81.6455 94.6672H72.2685C72.202 94.6672 72.1382 94.6408 72.091 94.5937C72.0438 94.5467 72.017 94.4827 72.0166 94.4159V91.2084C72.017 91.1414 72.0437 91.0773 72.0909 91.0299C72.138 90.9826 72.2018 90.9557 72.2685 90.9552H81.6455C81.6786 90.9552 81.7113 90.9618 81.7419 90.9745C81.7725 90.9872 81.8003 91.0059 81.8237 91.0294C81.8471 91.0529 81.8656 91.0808 81.8783 91.1115C81.891 91.1423 81.8975 91.1752 81.8975 91.2084V94.4159ZM81.8975 86.099C81.8977 86.1324 81.8914 86.1654 81.8788 86.1962C81.8662 86.2271 81.8477 86.2551 81.8242 86.2787C81.8008 86.3022 81.7729 86.3209 81.7422 86.3335C81.7115 86.3461 81.6787 86.3525 81.6455 86.3523H72.2685C72.2017 86.3523 72.1376 86.3256 72.0903 86.2781C72.0431 86.2306 72.0166 86.1662 72.0166 86.099V82.8841C72.0166 82.8169 72.0431 82.7525 72.0903 82.705C72.1376 82.6576 72.2017 82.6309 72.2685 82.6309H81.6455C81.6787 82.6306 81.7115 82.637 81.7422 82.6496C81.7729 82.6623 81.8008 82.6809 81.8242 82.7045C81.8477 82.728 81.8662 82.7561 81.8788 82.7869C81.8914 82.8177 81.8977 82.8508 81.8975 82.8841V86.099ZM81.8975 77.7841C81.8975 77.8173 81.891 77.8502 81.8783 77.881C81.8656 77.9117 81.8471 77.9396 81.8237 77.9631C81.8003 77.9866 81.7725 78.0053 81.7419 78.018C81.7113 78.0307 81.6786 78.0373 81.6455 78.0373H72.2685C72.2018 78.0368 72.138 78.01 72.0909 77.9626C72.0437 77.9152 72.017 77.8511 72.0166 77.7841V74.5672C72.017 74.5002 72.0437 74.4361 72.0909 74.3887C72.138 74.3413 72.2018 74.3145 72.2685 74.314H81.6455C81.6786 74.314 81.7113 74.3206 81.7419 74.3333C81.7725 74.346 81.8003 74.3647 81.8237 74.3882C81.8471 74.4117 81.8656 74.4396 81.8783 74.4703C81.891 74.5011 81.8975 74.534 81.8975 74.5672V77.7841ZM81.8975 69.4672C81.8977 69.5005 81.8914 69.5336 81.8788 69.5644C81.8662 69.5952 81.8477 69.6233 81.8242 69.6468C81.8008 69.6704 81.7729 69.689 81.7422 69.7017C81.7115 69.7143 81.6787 69.7207 81.6455 69.7204H72.2685C72.2017 69.7204 72.1376 69.6937 72.0903 69.6463C72.0431 69.5988 72.0166 69.5344 72.0166 69.4672V66.2616C72.0166 66.1945 72.0431 66.1301 72.0903 66.0826C72.1376 66.0351 72.2017 66.0084 72.2685 66.0084H81.6455C81.6787 66.0082 81.7115 66.0145 81.7422 66.0272C81.7729 66.0398 81.8008 66.0585 81.8242 66.082C81.8477 66.1056 81.8662 66.1336 81.8788 66.1644C81.8914 66.1953 81.8977 66.2283 81.8975 66.2616V69.4672ZM81.8975 61.1522C81.8975 61.1855 81.891 61.2184 81.8783 61.2491C81.8656 61.2799 81.8471 61.3078 81.8237 61.3313C81.8003 61.3548 81.7725 61.3734 81.7419 61.3862C81.7113 61.3989 81.6786 61.4054 81.6455 61.4054H72.2685C72.2018 61.405 72.138 61.3781 72.0909 61.3307C72.0437 61.2834 72.017 61.2192 72.0166 61.1522V57.9354C72.017 57.8686 72.0438 57.8046 72.091 57.7576C72.1382 57.7105 72.202 57.6841 72.2685 57.6841H81.6455C81.6785 57.6838 81.7112 57.6901 81.7418 57.7027C81.7723 57.7152 81.8001 57.7337 81.8236 57.757C81.847 57.7804 81.8656 57.8082 81.8783 57.8388C81.8909 57.8694 81.8975 57.9022 81.8975 57.9354V61.1522ZM81.8975 52.8373C81.8975 52.8704 81.8909 52.9033 81.8783 52.9339C81.8656 52.9645 81.847 52.9923 81.8236 53.0156C81.8001 53.039 81.7723 53.0575 81.7418 53.07C81.7112 53.0825 81.6785 53.0888 81.6455 53.0886H72.2685C72.202 53.0886 72.1382 53.0622 72.091 53.0151C72.0438 52.968 72.017 52.9041 72.0166 52.8373V49.6204C72.017 49.5534 72.0437 49.4893 72.0909 49.4419C72.138 49.3945 72.2018 49.3677 72.2685 49.3672H81.6455C81.6786 49.3672 81.7113 49.3738 81.7419 49.3865C81.7725 49.3992 81.8003 49.4179 81.8237 49.4414C81.8471 49.4649 81.8656 49.4928 81.8783 49.5235C81.891 49.5542 81.8975 49.5872 81.8975 49.6204V52.8373ZM81.8975 44.5204C81.8977 44.5537 81.8914 44.5868 81.8788 44.6176C81.8662 44.6484 81.8477 44.6764 81.8242 44.7C81.8008 44.7236 81.7729 44.7422 81.7422 44.7549C81.7115 44.7675 81.6787 44.7739 81.6455 44.7736H72.2685C72.2017 44.7736 72.1376 44.7469 72.0903 44.6995C72.0431 44.652 72.0166 44.5876 72.0166 44.5204V41.3148C72.0166 41.2477 72.0431 41.1833 72.0903 41.1358C72.1376 41.0883 72.2017 41.0616 72.2685 41.0616H81.6455C81.6787 41.0614 81.7115 41.0677 81.7422 41.0804C81.7729 41.093 81.8008 41.1117 81.8242 41.1352C81.8477 41.1588 81.8662 41.1868 81.8788 41.2176C81.8914 41.2485 81.8977 41.2815 81.8975 41.3148V44.5204ZM97.0884 94.414C97.0884 94.4472 97.0819 94.48 97.0692 94.5106C97.0565 94.5413 97.0379 94.569 97.0145 94.5924C96.9911 94.6158 96.9633 94.6342 96.9327 94.6468C96.9022 94.6593 96.8694 94.6656 96.8364 94.6654H87.4594C87.3929 94.6654 87.3291 94.6389 87.2819 94.5919C87.2347 94.5448 87.208 94.4809 87.2075 94.414V91.2084C87.208 91.1414 87.2347 91.0773 87.2818 91.0299C87.329 90.9826 87.3928 90.9557 87.4594 90.9552H96.8364C96.9033 90.9552 96.9673 90.9819 97.0146 91.0294C97.0619 91.0769 97.0884 91.1413 97.0884 91.2084V94.414ZM97.0884 86.0972C97.0886 86.1305 97.0823 86.1635 97.0697 86.1944C97.0572 86.2252 97.0386 86.2532 97.0151 86.2768C96.9917 86.3003 96.9638 86.319 96.9331 86.3316C96.9025 86.3443 96.8696 86.3506 96.8364 86.3504H87.4594C87.3926 86.3504 87.3285 86.3237 87.2813 86.2762C87.234 86.2287 87.2075 86.1643 87.2075 86.0972V82.8841C87.2075 82.8169 87.234 82.7525 87.2813 82.705C87.3285 82.6576 87.3926 82.6309 87.4594 82.6309H96.8364C96.8696 82.6306 96.9025 82.637 96.9331 82.6496C96.9638 82.6623 96.9917 82.6809 97.0151 82.7045C97.0386 82.728 97.0572 82.7561 97.0697 82.7869C97.0823 82.8177 97.0886 82.8508 97.0884 82.8841V86.0972ZM97.0884 77.7822C97.0884 77.8493 97.0619 77.9137 97.0146 77.9612C96.9673 78.0087 96.9033 78.0354 96.8364 78.0354H87.4594C87.3928 78.0349 87.329 78.0081 87.2818 77.9607C87.2347 77.9133 87.208 77.8492 87.2075 77.7822V74.5672C87.208 74.5002 87.2347 74.4361 87.2818 74.3887C87.329 74.3413 87.3928 74.3145 87.4594 74.314H96.8364C96.9033 74.314 96.9673 74.3407 97.0146 74.3882C97.0619 74.4357 97.0884 74.5001 97.0884 74.5672V77.7822ZM97.0884 69.4653C97.0886 69.4987 97.0823 69.5317 97.0697 69.5625C97.0572 69.5934 97.0386 69.6214 97.0151 69.6449C96.9917 69.6685 96.9638 69.6871 96.9331 69.6998C96.9025 69.7124 96.8696 69.7188 96.8364 69.7186H87.4594C87.3926 69.7186 87.3285 69.6919 87.2813 69.6444C87.234 69.5969 87.2075 69.5325 87.2075 69.4653V66.2616C87.2075 66.1945 87.234 66.1301 87.2813 66.0826C87.3285 66.0351 87.3926 66.0084 87.4594 66.0084H96.8364C96.8696 66.0082 96.9025 66.0145 96.9331 66.0272C96.9638 66.0398 96.9917 66.0585 97.0151 66.082C97.0386 66.1056 97.0572 66.1336 97.0697 66.1644C97.0823 66.1953 97.0886 66.2283 97.0884 66.2616V69.4653ZM97.0884 61.1504C97.0884 61.2175 97.0619 61.2819 97.0146 61.3294C96.9673 61.3769 96.9033 61.4036 96.8364 61.4036H87.4594C87.3928 61.4031 87.329 61.3762 87.2818 61.3289C87.2347 61.2815 87.208 61.2174 87.2075 61.1504V57.9354C87.208 57.8686 87.2347 57.8046 87.2819 57.7576C87.3291 57.7105 87.3929 57.6841 87.4594 57.6841H96.8364C96.8694 57.6838 96.9022 57.6901 96.9327 57.7027C96.9633 57.7152 96.9911 57.7337 97.0145 57.757C97.0379 57.7804 97.0565 57.8082 97.0692 57.8388C97.0819 57.8694 97.0884 57.9022 97.0884 57.9354V61.1504ZM97.0884 52.8354C97.0884 52.8685 97.0819 52.9014 97.0692 52.932C97.0565 52.9626 97.0379 52.9904 97.0145 53.0138C96.9911 53.0371 96.9633 53.0556 96.9327 53.0681C96.9022 53.0807 96.8694 53.087 96.8364 53.0867H87.4594C87.3929 53.0867 87.3291 53.0603 87.2819 53.0132C87.2347 52.9661 87.208 52.9022 87.2075 52.8354V49.6204C87.208 49.5534 87.2347 49.4893 87.2818 49.4419C87.329 49.3945 87.3928 49.3677 87.4594 49.3672H96.8364C96.9033 49.3672 96.9673 49.3939 97.0146 49.4414C97.0619 49.4889 97.0884 49.5533 97.0884 49.6204V52.8354ZM97.0884 44.5185C97.0886 44.5518 97.0823 44.5849 97.0697 44.6157C97.0572 44.6466 97.0386 44.6746 97.0151 44.6981C96.9917 44.7217 96.9638 44.7403 96.9331 44.753C96.9025 44.7656 96.8696 44.772 96.8364 44.7717H87.4594C87.3926 44.7717 87.3285 44.7451 87.2813 44.6976C87.234 44.6501 87.2075 44.5857 87.2075 44.5185V41.3148C87.2075 41.2477 87.234 41.1833 87.2813 41.1358C87.3285 41.0883 87.3926 41.0616 87.4594 41.0616H96.8364C96.8696 41.0614 96.9025 41.0677 96.9331 41.0804C96.9638 41.093 96.9917 41.1117 97.0151 41.1352C97.0386 41.1588 97.0572 41.1868 97.0697 41.2176C97.0823 41.2485 97.0886 41.2815 97.0884 41.3148V44.5185ZM119.32 94.4121C119.319 94.479 119.292 94.5429 119.245 94.59C119.198 94.6371 119.134 94.6635 119.068 94.6635H109.691C109.658 94.6637 109.625 94.6574 109.594 94.6449C109.564 94.6324 109.536 94.6139 109.513 94.5905C109.489 94.5672 109.471 94.5394 109.458 94.5088C109.445 94.4781 109.439 94.4453 109.439 94.4121V91.2084C109.439 91.1413 109.465 91.0769 109.512 91.0294C109.56 90.9819 109.624 90.9552 109.691 90.9552H119.068C119.134 90.9557 119.198 90.9826 119.245 91.0299C119.292 91.0773 119.319 91.1414 119.32 91.2084V94.4121ZM119.32 86.0953C119.32 86.1624 119.293 86.2269 119.246 86.2743C119.198 86.3218 119.134 86.3485 119.068 86.3485H109.691C109.657 86.3488 109.625 86.3424 109.594 86.3297C109.563 86.3171 109.535 86.2985 109.512 86.2749C109.488 86.2513 109.47 86.2233 109.457 86.1925C109.445 86.1616 109.438 86.1286 109.439 86.0953V82.8841C109.438 82.8508 109.445 82.8177 109.457 82.7869C109.47 82.7561 109.488 82.728 109.512 82.7045C109.535 82.6809 109.563 82.6623 109.594 82.6496C109.625 82.637 109.657 82.6306 109.691 82.6309H119.068C119.134 82.6309 119.198 82.6576 119.246 82.705C119.293 82.7525 119.32 82.8169 119.32 82.8841V86.0953ZM119.32 77.7803C119.319 77.8473 119.292 77.9114 119.245 77.9588C119.198 78.0062 119.134 78.033 119.068 78.0335H109.691C109.624 78.0335 109.56 78.0068 109.512 77.9594C109.465 77.9119 109.439 77.8475 109.439 77.7803V74.5672C109.439 74.5001 109.465 74.4357 109.512 74.3882C109.56 74.3407 109.624 74.314 109.691 74.314H119.068C119.134 74.3145 119.198 74.3413 119.245 74.3887C119.292 74.4361 119.319 74.5002 119.32 74.5672V77.7803ZM119.32 69.4635C119.32 69.5306 119.293 69.595 119.246 69.6425C119.198 69.69 119.134 69.7167 119.068 69.7167H109.691C109.625 69.7162 109.563 69.69 109.516 69.6437C109.47 69.5975 109.443 69.5348 109.442 69.4691V66.2616C109.442 66.2283 109.448 66.1953 109.461 66.1644C109.474 66.1336 109.492 66.1056 109.516 66.082C109.539 66.0585 109.567 66.0398 109.598 66.0272C109.628 66.0145 109.661 66.0082 109.694 66.0084H119.071C119.138 66.0084 119.202 66.0351 119.249 66.0826C119.297 66.1301 119.323 66.1945 119.323 66.2616L119.32 69.4635ZM119.32 61.1485C119.319 61.2155 119.292 61.2796 119.245 61.327C119.198 61.3744 119.134 61.4012 119.068 61.4017H109.691C109.624 61.4017 109.56 61.375 109.512 61.3275C109.465 61.28 109.439 61.2156 109.439 61.1485V57.9354C109.439 57.9022 109.445 57.8694 109.458 57.8388C109.471 57.8082 109.489 57.7804 109.513 57.757C109.536 57.7337 109.564 57.7152 109.594 57.7027C109.625 57.6901 109.658 57.6838 109.691 57.6841H119.068C119.134 57.6841 119.198 57.7105 119.245 57.7576C119.292 57.8046 119.319 57.8686 119.32 57.9354V61.1485ZM119.32 52.8335C119.319 52.9003 119.292 52.9643 119.245 53.0113C119.198 53.0584 119.134 53.0848 119.068 53.0848H109.691C109.658 53.0851 109.625 53.0788 109.594 53.0663C109.564 53.0537 109.536 53.0353 109.513 53.0119C109.489 52.9885 109.471 52.9607 109.458 52.9301C109.445 52.8995 109.439 52.8667 109.439 52.8335V49.6204C109.439 49.5533 109.465 49.4889 109.512 49.4414C109.56 49.3939 109.624 49.3672 109.691 49.3672H119.068C119.134 49.3677 119.198 49.3945 119.245 49.4419C119.292 49.4893 119.319 49.5534 119.32 49.6204V52.8335ZM119.32 44.5167C119.32 44.5499 119.313 44.5828 119.3 44.6136C119.288 44.6443 119.269 44.6722 119.246 44.6957C119.222 44.7192 119.195 44.7379 119.164 44.7506C119.133 44.7633 119.101 44.7699 119.068 44.7699H109.691C109.625 44.7694 109.563 44.7432 109.516 44.6969C109.47 44.6507 109.443 44.588 109.442 44.5223V41.3148C109.442 41.2815 109.448 41.2485 109.461 41.2176C109.474 41.1868 109.492 41.1588 109.516 41.1352C109.539 41.1117 109.567 41.093 109.598 41.0804C109.628 41.0677 109.661 41.0614 109.694 41.0616H119.071C119.138 41.0616 119.202 41.0883 119.249 41.1358C119.297 41.1833 119.323 41.2477 119.323 41.3148L119.32 44.5167Z" fill="#F2F2F2"/>
<path d="M49.862 9.03226L46.9653 10.8779L48.7235 7.66299C48.2256 7.2638 47.6096 7.04271 46.9728 7.03464H46.9261C46.7249 7.03766 46.5237 7.0226 46.3251 6.98962L45.3434 7.61423L45.7633 6.84519C45.0671 6.60123 44.4658 6.1415 44.0462 5.5322L42.2899 6.65762L43.3986 4.62999C42.372 3.39015 40.9871 2.63049 39.4622 2.63049C37.635 2.63049 36.0075 3.72215 34.9567 5.42341C34.6459 5.93424 34.2056 6.35283 33.6808 6.63629C33.1561 6.91975 32.5658 7.05788 31.9704 7.03651H31.8733C29.8557 7.03651 28.2207 9.33612 28.2207 12.1703C28.2207 15.0045 29.8632 17.306 31.8808 17.306C32.324 17.3037 32.7601 17.1936 33.1518 16.9852C33.8385 16.6495 34.5897 16.4678 35.3532 16.4529C36.1167 16.438 36.8743 16.5902 37.5734 16.8989C38.1647 17.1648 38.8052 17.3022 39.4529 17.3022C40.1007 17.3022 40.7411 17.1648 41.3324 16.8989C42.026 16.5967 42.7762 16.4479 43.532 16.4628C44.2879 16.4777 45.0317 16.6559 45.7129 16.9852C46.1013 17.1919 46.5333 17.3018 46.9728 17.306C48.9904 17.306 50.6254 15.0064 50.6254 12.1703C50.6374 11.0764 50.3748 9.99718 49.862 9.03226Z" fill="#F2F2F2"/>
<path opacity="0.03" d="M44.4026 16.5445C43.3487 16.3428 42.2589 16.4617 41.2726 16.8859C40.6814 17.1511 40.0413 17.2881 39.394 17.2881C38.7466 17.2881 38.1065 17.1511 37.5154 16.8859C36.8161 16.578 36.0586 16.4263 35.2952 16.4412C34.5318 16.4561 33.7808 16.6372 33.0938 16.9721C32.7018 17.1816 32.2649 17.2917 31.8209 17.2929C30.0291 17.2929 28.5379 15.4791 28.228 13.0857C28.5862 12.8229 28.8904 12.493 29.1239 12.1141C30.1747 10.4128 31.8023 9.32117 33.6295 9.32117C35.4567 9.32117 37.0637 10.3997 38.1089 12.0841C38.4219 12.5928 38.8606 13.0115 39.3822 13.2994C39.9039 13.5873 40.4908 13.7347 41.0859 13.7272H41.1326C42.566 13.7178 43.8016 14.8676 44.4026 16.5445Z" fill="black"/>
<path d="M143.507 3.92845L142.059 4.84942L142.936 3.24569C142.688 3.04676 142.38 2.93656 142.063 2.93245H142.04C141.94 2.93443 141.839 2.9269 141.74 2.90994L141.251 3.22318L141.46 2.84804C141.113 2.72592 140.814 2.49762 140.603 2.1953L139.728 2.75801L140.288 1.74701C140.057 1.44187 139.761 1.19255 139.421 1.01729C139.082 0.842037 138.708 0.745289 138.326 0.734131C137.415 0.734131 136.603 1.27996 136.086 2.12778C135.931 2.38284 135.711 2.59177 135.448 2.73316C135.186 2.87455 134.891 2.94333 134.593 2.93245H134.545C133.539 2.93245 132.723 4.0785 132.723 5.49278C132.723 6.90706 133.539 8.05311 134.545 8.05311C134.766 8.05239 134.984 7.99768 135.179 7.89368C135.522 7.72648 135.896 7.63602 136.277 7.62857C136.657 7.62113 137.035 7.69686 137.384 7.85054C137.679 7.9829 137.998 8.05131 138.322 8.05131C138.645 8.05131 138.964 7.9829 139.259 7.85054C139.606 7.70003 139.98 7.626 140.357 7.63344C140.734 7.64089 141.105 7.72963 141.445 7.89368C141.639 7.99541 141.854 8.04881 142.072 8.04936C143.078 8.04936 143.894 6.90331 143.894 5.48903C143.897 4.94457 143.764 4.40806 143.507 3.92845Z" fill="#F2F2F2"/>
<path opacity="0.03" d="M140.784 7.67423C140.258 7.57483 139.715 7.63422 139.222 7.84492C138.928 7.97624 138.61 8.04398 138.289 8.04374C137.967 8.04208 137.649 7.97309 137.356 7.84117C137.007 7.68745 136.629 7.61171 136.248 7.61916C135.867 7.6266 135.492 7.71707 135.15 7.88431C134.954 7.98852 134.736 8.04325 134.515 8.04374C133.621 8.04374 132.878 7.13966 132.723 5.94484C132.902 5.81383 133.054 5.64954 133.171 5.46091C133.694 4.61309 134.506 4.06726 135.411 4.06726C136.316 4.06726 137.124 4.60559 137.651 5.4459C137.807 5.70086 138.027 5.91046 138.289 6.05416C138.551 6.19786 138.845 6.27071 139.144 6.26558H139.168C139.868 6.26558 140.484 6.83954 140.784 7.67423Z" fill="black"/>
<path d="M121.548 14.1187L119.849 15.201L120.88 13.3253C120.589 13.0888 120.227 12.9568 119.853 12.9501H119.825C119.707 12.9518 119.589 12.943 119.472 12.9239L118.898 13.299L119.144 12.847C118.736 12.7042 118.383 12.4357 118.136 12.0798L117.106 12.7363L117.757 11.5471C117.483 11.1914 117.134 10.9015 116.735 10.6984C116.335 10.4953 115.896 10.3841 115.448 10.3729C114.377 10.3729 113.421 11.0144 112.806 12.0123C112.623 12.3096 112.365 12.553 112.058 12.7178C111.751 12.8825 111.406 12.9627 111.059 12.9501H111.001C109.817 12.9501 108.86 14.2988 108.86 15.9513C108.86 17.6037 109.817 18.9618 111.001 18.9618C111.261 18.9613 111.517 18.8969 111.747 18.7742C112.15 18.5776 112.59 18.4712 113.038 18.4624C113.486 18.4537 113.93 18.5428 114.34 18.7235C114.687 18.8787 115.062 18.9589 115.442 18.9589C115.822 18.9589 116.197 18.8787 116.544 18.7235C116.951 18.5464 117.391 18.4593 117.835 18.468C118.278 18.4767 118.714 18.5811 119.114 18.7742C119.344 18.8961 119.6 18.9604 119.861 18.9618C121.044 18.9618 122.003 17.615 122.003 15.9513C122.006 15.3118 121.85 14.6817 121.548 14.1187Z" fill="#F2F2F2"/>
<path opacity="0.03" d="M112.485 25.2027C111.866 25.085 111.227 25.1549 110.648 25.4034C110.301 25.5586 109.926 25.6388 109.546 25.6388C109.166 25.6388 108.791 25.5586 108.444 25.4034C108.034 25.2226 107.59 25.1335 107.142 25.1423C106.694 25.151 106.254 25.2574 105.851 25.454C105.621 25.5765 105.365 25.6409 105.105 25.6416C104.054 25.6416 103.179 24.5781 102.998 23.1751C103.207 23.0231 103.385 22.8321 103.522 22.6123C104.138 21.6145 105.094 20.9749 106.165 20.9749C107.236 20.9749 108.181 21.607 108.797 22.5936C108.98 22.8921 109.237 23.1379 109.543 23.3068C109.849 23.4758 110.193 23.5622 110.542 23.5577H110.562C111.406 23.5446 112.132 24.2198 112.485 25.2027Z" fill="black"/>
<path d="M176.798 107.499C176.798 107.822 176.798 108.144 176.778 108.463C176.73 109.704 176.581 110.939 176.333 112.156C175.107 118.179 171.567 122.861 167.119 124.243C166.234 124.52 165.313 124.661 164.386 124.662C157.531 124.662 151.975 116.971 151.975 107.499C151.975 98.0267 157.531 90.3363 164.386 90.3363C170.816 90.3363 176.106 97.1001 176.735 105.764C176.778 106.334 176.798 106.914 176.798 107.499Z" fill="#333333"/>
<path opacity="0.1" d="M176.778 108.465C176.73 109.706 176.581 110.941 176.333 112.158C175.107 118.181 171.567 122.863 167.119 124.245C163.675 122.653 161.12 116.684 161.12 109.564C161.12 101.225 164.629 94.4647 168.959 94.4647C172.593 94.4647 175.65 99.2328 176.537 105.702C176.66 106.589 176.74 107.516 176.778 108.465Z" fill="black"/>
<path d="M114.459 69.516C114.459 69.516 148.055 62.5759 165.786 68.9533C165.786 68.9533 168.399 70.2663 165.786 72.5172C165.786 72.5172 168.258 75.1431 163.942 76.081L146.799 77.1408L114.459 73.8302V69.516Z" fill="#2F2E30"/>
<path d="M153.094 80.7703L150.855 76.2686C150.855 76.2686 151.836 71.7144 143.855 70.3752C143.413 68.3888 141.408 66.8901 139.003 66.8901C136.655 66.8901 134.691 68.3157 134.184 70.2289C133.038 70.3283 131.817 70.4633 130.51 70.6415L128.685 80.4777L128.457 80.02C128.457 80.02 129.616 74.6405 119.17 73.8546C119.739 73.161 120.053 72.2911 120.058 71.3918C120.058 69.0078 117.843 67.0777 115.112 67.0777C112.382 67.0777 110.166 69.0078 110.166 71.3918C110.173 72.3712 110.543 73.3127 111.204 74.0328C110.227 74.1266 109.197 74.2466 108.113 74.3929L106.06 85.4596L115.579 86.7726L130.697 84.5217L129.359 81.8301L137.976 83.0193L153.094 80.7703Z" fill="#6C6C6C"/>
<path d="M120.988 70.8065C120.988 70.8065 119.495 62.3884 126.401 62.2008C133.306 62.0133 131.067 74.3929 131.067 74.3929C131.067 74.3929 136.293 75.5183 136.666 77.5816C137.039 79.6448 118.562 80.2075 118.562 80.2075L120.988 70.8065Z" fill="#8F8F8F"/>
<path d="M108.86 115.283C108.86 125.224 101.506 133.29 92.4354 133.29C83.3645 133.29 76.0107 125.224 76.0107 115.283C76.0107 105.342 83.456 95.6821 92.5287 95.6821C101.601 95.6821 108.86 105.338 108.86 115.283Z" fill="#333333"/>
<path opacity="0.1" d="M92.4352 131.225C99.6508 131.225 105.5 124.423 105.5 116.033C105.5 107.644 99.6508 100.842 92.4352 100.842C85.2195 100.842 79.3701 107.644 79.3701 116.033C79.3701 124.423 85.2195 131.225 92.4352 131.225Z" fill="black"/>
<path d="M20.2044 131.6C29.2755 131.6 36.6291 123.538 36.6291 113.593C36.6291 103.648 29.2755 95.5864 20.2044 95.5864C11.1333 95.5864 3.77979 103.648 3.77979 113.593C3.77979 123.538 11.1333 131.6 20.2044 131.6Z" fill="#303030"/>
<path d="M48.2005 70.6415C48.2005 70.6415 40.5481 71.0166 40.9214 75.1432C41.2947 79.2697 47.454 76.2686 47.454 76.2686L48.2005 70.6415Z" fill="#373737"/>
<path d="M111.869 77.5159L115.019 56.3861C115.019 56.3861 115.766 53.7601 105.687 53.7601C105.687 53.7601 73.3979 51.6969 65.1856 55.0731C65.1856 55.0731 55.6667 58.6369 42.415 77.0188C42.415 77.0188 110.562 78.6413 111.869 77.5159Z" fill="#FBA403"/>
<path d="M109.333 56.4018C110.284 56.3941 110.976 57.3023 110.716 58.2171L104.94 78.5195L101.312 78.4313L84.1407 78.0112L45.8432 77.0733C45.7504 75.482 59.8276 61.2002 63.4089 57.5941C63.9357 57.0636 64.6485 56.7666 65.3961 56.7605L109.333 56.4018Z" fill="#4F4F4F"/>
<path opacity="0.2" d="M84.1465 78.0112L85.7106 71.9339C85.7106 71.9339 84.2174 63.5139 91.1232 63.3263C98.029 63.1388 95.7893 75.5184 95.7893 75.5184C95.7893 75.5184 100.549 76.5444 101.307 78.4314L84.1465 78.0112Z" fill="#888888"/>
<path d="M176.892 106.186C175.772 95.307 168.773 92.9623 168.773 92.9623C162.053 92.5872 157.574 118.284 157.574 118.284L105.874 122.974C105.874 122.974 107.647 101.122 95.1416 97.5578C82.6365 93.994 79.3702 119.597 78.8103 123.161C78.2504 126.725 3.40625 122.786 1.35317 121.285C-0.699914 119.785 0.0466609 105.342 0.606592 104.217C1.16652 103.091 2.65967 98.0267 2.65967 98.0267C2.65967 96.8188 3.23453 95.292 3.71234 94.2322C4.0483 93.4819 4.33947 92.9623 4.33947 92.9623C5.9614 83.7189 14.3828 81.4812 14.9483 81.333H14.9782C17.2179 79.0822 37.9353 77.5816 37.9353 77.5816L45.7744 76.0811L109.508 77.3396L112.219 77.394L144.621 75.8278L166.533 74.7681C171.572 74.7681 174.185 87.5228 174.185 87.5228C178.851 98.777 176.892 106.186 176.892 106.186Z" fill="#FBA403"/>
<path opacity="0.1" d="M71.8197 95.1393C76.7426 93.1484 79.728 89.0236 78.4878 85.9262C77.2475 82.8288 72.2513 81.9318 67.3283 83.9226C62.4054 85.9134 59.42 90.0383 60.6602 93.1357C61.9005 96.2331 66.8967 97.1301 71.8197 95.1393Z" fill="black"/>
<path d="M71.4466 94.3882C76.3696 92.3973 79.355 88.2725 78.1147 85.1751C76.8745 82.0777 71.8782 81.1807 66.9553 83.1715C62.0323 85.1624 59.0469 89.2872 60.2872 92.3846C61.5274 95.482 66.5237 96.379 71.4466 94.3882Z" fill="#F2F2F2"/>
<path opacity="0.1" d="M15.3214 81.7157C15.2262 83.779 14.3061 86.3824 12.6505 88.8902C9.98712 92.9268 6.33451 95.3033 4.08545 94.6074C4.42141 93.8571 4.71257 93.3375 4.71257 93.3375C6.33451 84.0941 14.7559 81.8564 15.3214 81.7157Z" fill="black"/>
<path d="M14.7618 81.3405C14.6666 83.4037 13.7465 86.0072 12.091 88.515C9.42755 92.5515 5.77493 94.928 3.52588 94.2321C3.86184 93.4819 4.153 92.9623 4.153 92.9623C5.77493 83.7188 14.1963 81.4811 14.7618 81.3405Z" fill="#F2F2F2"/>
<path d="M40.9216 86.9582H26.1768L25.4302 84.8949H43.348L40.9216 86.9582Z" fill="#373737"/>
<path d="M37.562 102.151H13.2983V109.279H37.562V102.151Z" fill="#373737"/>
<path opacity="0.1" d="M63.6921 116.219C65.5476 116.219 67.0517 114.707 67.0517 112.843C67.0517 110.978 65.5476 109.467 63.6921 109.467C61.8367 109.467 60.3325 110.978 60.3325 112.843C60.3325 114.707 61.8367 116.219 63.6921 116.219Z" fill="black"/>
<path d="M63.3191 115.656C65.1745 115.656 66.6786 114.145 66.6786 112.28C66.6786 110.416 65.1745 108.904 63.3191 108.904C61.4636 108.904 59.9595 110.416 59.9595 112.28C59.9595 114.145 61.4636 115.656 63.3191 115.656Z" fill="#F2F2F2"/>
<path opacity="0.1" d="M2.65977 113.781C3.5875 113.781 4.33957 112.185 4.33957 110.217C4.33957 108.249 3.5875 106.653 2.65977 106.653C1.73205 106.653 0.97998 108.249 0.97998 110.217C0.97998 112.185 1.73205 113.781 2.65977 113.781Z" fill="black"/>
<path d="M2.09971 113.593C3.02744 113.593 3.77951 111.998 3.77951 110.029C3.77951 108.061 3.02744 106.465 2.09971 106.465C1.17199 106.465 0.419922 108.061 0.419922 110.029C0.419922 111.998 1.17199 113.593 2.09971 113.593Z" fill="#F2F2F2"/>
<path d="M150.108 95.0255C148.055 101.403 147.868 111.344 147.868 111.344L147.122 113.97L110.726 118.097C110.726 118.097 110.913 99.7148 111.473 91.0866C111.867 84.9999 110.405 79.8474 109.507 77.3396L112.219 77.394L144.621 75.8278C150.033 79.6411 151.95 89.299 150.108 95.0255Z" fill="#D58A00"/>
<path d="M141.81 83.5276C141.683 83.5361 141.559 83.5713 141.445 83.6309C141.332 83.6905 141.233 83.7732 141.153 83.8737C141.074 83.9741 141.016 84.0902 140.984 84.2144C140.952 84.3386 140.946 84.4682 140.967 84.5948C140.984 84.7009 141.028 84.8009 141.093 84.8863C141.158 84.9716 141.243 85.0396 141.34 85.0844C141.943 85.3864 145.956 84.7093 147.477 84.4392C147.702 84.4025 147.909 84.2918 148.065 84.1245C148.221 83.9572 148.317 83.7427 148.339 83.5144C148.358 83.2481 148.261 83.0211 147.872 83.0211L141.81 83.5276Z" fill="#F2F2F2"/>
<path d="M109.42 76.6437C109.42 76.6437 110.353 80.7702 114.833 79.4573L116.326 73.6426L113.339 71.9545L109.42 76.6437Z" fill="#373737"/>
<path d="M114.905 68.265C116.958 67.042 120.215 65.9729 123.437 68.5407C124.107 69.0727 124.58 69.816 124.78 70.6508C124.979 71.4857 124.893 72.3637 124.536 73.1437C123.481 75.4377 120.978 77.9267 115.135 74.9462C114.561 74.6536 114.071 74.2184 113.712 73.682L113.683 73.637C113.4 73.2072 113.207 72.7243 113.115 72.2174C113.024 71.7105 113.035 71.1902 113.15 70.688C113.264 70.1857 113.478 69.7121 113.78 69.2956C114.082 68.8791 114.465 68.5285 114.905 68.265Z" fill="#373737"/>
<path d="M92.5288 118.939C94.5904 118.939 96.2616 117.259 96.2616 115.188C96.2616 113.116 94.5904 111.436 92.5288 111.436C90.4672 111.436 88.7959 113.116 88.7959 115.188C88.7959 117.259 90.4672 118.939 92.5288 118.939Z" fill="#F2F2F2"/>
<path d="M169.613 112.186C170.747 112.186 171.666 110.507 171.666 108.435C171.666 106.363 170.747 104.684 169.613 104.684C168.479 104.684 167.56 106.363 167.56 108.435C167.56 110.507 168.479 112.186 169.613 112.186Z" fill="#F2F2F2"/>
<path d="M92.6218 103.652H92.2485C91.0115 103.652 90.0088 104.66 90.0088 105.903V107.966C90.0088 109.209 91.0115 110.217 92.2485 110.217H92.6218C93.8588 110.217 94.8615 109.209 94.8615 107.966V105.903C94.8615 104.66 93.8588 103.652 92.6218 103.652Z" fill="#484848"/>
<path d="M169.612 96.4305C169.784 96.4305 169.954 96.4645 170.112 96.5305C170.271 96.5965 170.415 96.6932 170.536 96.8151C170.657 96.937 170.754 97.0818 170.819 97.2411C170.885 97.4004 170.919 97.5711 170.919 97.7435V100.745C170.919 101.342 170.683 101.914 170.263 102.336C169.843 102.758 169.273 102.996 168.679 102.996C168.333 102.996 168 102.857 167.755 102.611C167.51 102.365 167.373 102.031 167.373 101.683V98.6814C167.373 98.0844 167.609 97.5119 168.029 97.0898C168.449 96.6677 169.018 96.4305 169.612 96.4305Z" fill="#484848"/>
<path d="M169.612 120.441C169.018 120.441 168.449 120.204 168.029 119.782C167.609 119.36 167.373 118.787 167.373 118.19V116.127C167.373 115.53 167.609 114.958 168.029 114.536C168.449 114.113 169.018 113.876 169.612 113.876C170.844 113.876 170.732 114.889 170.732 116.127V118.19C170.73 119.428 170.848 120.441 169.612 120.441Z" fill="#484848"/>
<path d="M164.013 105.059C164.607 105.059 165.177 105.296 165.597 105.718C166.017 106.14 166.253 106.713 166.253 107.31V110.123C166.253 110.521 166.096 110.903 165.816 111.184C165.536 111.466 165.156 111.624 164.76 111.624C164.166 111.624 163.596 111.387 163.176 110.964C162.756 110.542 162.52 109.97 162.52 109.373V106.559C162.52 106.161 162.677 105.78 162.957 105.498C163.237 105.217 163.617 105.059 164.013 105.059Z" fill="#484848"/>
<path d="M176.798 107.499C176.798 107.821 176.798 108.144 176.778 108.463C176.73 109.704 176.582 110.939 176.334 112.156C176.21 112.177 176.086 112.188 175.96 112.188C175.366 112.188 174.797 111.951 174.377 111.529C173.957 111.107 173.721 110.534 173.721 109.937V107.874C173.721 107.277 173.957 106.705 174.377 106.282C174.797 105.86 175.366 105.623 175.96 105.623C176.156 105.623 176.35 105.649 176.539 105.7C176.606 105.719 176.673 105.739 176.737 105.764C176.778 106.334 176.798 106.914 176.798 107.499Z" fill="#484848"/>
<path d="M102.048 111.624H101.674C100.437 111.624 99.4346 112.631 99.4346 113.875V115.938C99.4346 117.181 100.437 118.189 101.674 118.189H102.048C103.285 118.189 104.287 117.181 104.287 115.938V113.875C104.287 112.631 103.285 111.624 102.048 111.624Z" fill="#484848"/>
<path d="M83.7566 111.624H83.3833C82.1463 111.624 81.1436 112.631 81.1436 113.875V115.938C81.1436 117.181 82.1463 118.189 83.3833 118.189H83.7566C84.9935 118.189 85.9963 117.181 85.9963 115.938V113.875C85.9963 112.631 84.9935 111.624 83.7566 111.624Z" fill="#484848"/>
<path d="M92.7151 121.377H92.3418C91.1048 121.377 90.1021 122.385 90.1021 123.628V125.691C90.1021 126.935 91.1048 127.942 92.3418 127.942H92.7151C93.952 127.942 94.9548 126.935 94.9548 125.691V123.628C94.9548 122.385 93.952 121.377 92.7151 121.377Z" fill="#484848"/>
<path d="M157.716 39.3754C157.715 39.7331 157.652 40.0879 157.529 40.4239C157.316 41.0209 156.927 41.5383 156.414 41.907C155.9 42.2757 155.287 42.4781 154.656 42.4871C154.025 42.4961 153.407 42.3112 152.883 41.9573C152.36 41.6033 151.956 41.0971 151.726 40.5064C151.586 40.1481 151.514 39.7663 151.514 39.381C151.514 38.5552 151.84 37.7632 152.421 37.1793C153.002 36.5954 153.79 36.2673 154.612 36.2673C155.434 36.2673 156.222 36.5954 156.803 37.1793C157.384 37.7632 157.71 38.5552 157.71 39.381L157.716 39.3754Z" fill="#252525"/>
<path d="M152.142 40.1519C151.945 39.7944 151.819 39.4013 151.773 38.995C151.727 38.5888 151.761 38.1774 151.873 37.7843C151.985 37.3911 152.173 37.024 152.426 36.7039C152.679 36.3838 152.992 36.1169 153.348 35.9185C153.694 35.7217 154.074 35.5943 154.468 35.5433C154.041 35.5281 153.616 35.6018 153.218 35.7597C152.821 35.9176 152.461 36.1563 152.16 36.4609C151.859 36.7655 151.624 37.1293 151.469 37.5296C151.315 37.9298 151.244 38.3578 151.263 38.7867C151.281 39.2156 151.387 39.6361 151.574 40.0219C151.762 40.4076 152.027 40.7501 152.352 41.0281C152.678 41.306 153.057 41.5133 153.466 41.6369C153.875 41.7605 154.305 41.7977 154.729 41.7463C154.198 41.726 153.681 41.5687 153.228 41.2894C152.775 41.0102 152.401 40.6185 152.142 40.1519Z" fill="#252525"/>
<path d="M159.045 43.712H150.745V56.7238H159.045V43.712Z" fill="#151515"/>
<path d="M137.625 90.9197C137.625 90.9197 136.741 93.3581 134.639 93.6995C132.537 94.0408 131.324 94.5848 131.324 94.5848L136.304 97.8091L138.96 97.4752C138.96 97.4752 139.29 94.0277 140.397 93.2493C141.504 92.4709 137.625 90.9197 137.625 90.9197Z" fill="#FBBEBE"/>
<path d="M173.595 90.9197C173.595 90.9197 174.48 93.3581 176.581 93.6995C178.683 94.0408 179.9 94.5904 179.9 94.5904L174.92 97.8147L172.264 97.4809C172.264 97.4809 171.934 94.0333 170.827 93.2549C169.72 92.4765 173.595 90.9197 173.595 90.9197Z" fill="#FBBEBE"/>
<path d="M149.362 69.3453C149.362 69.3453 148.033 70.0131 147.591 71.3467C147.591 71.3467 145.164 72.1251 143.828 74.239C143.828 74.239 142.169 76.0172 141.947 76.9082C141.724 77.7991 139.18 83.143 139.18 83.143C139.18 83.143 136.637 91.4824 135.308 92.3733C135.308 92.3733 139.513 91.4824 140.287 95.7083C140.287 95.7083 141.284 95.7083 142.391 91.8162C143.498 87.9242 146.152 83.143 146.152 83.143C146.152 83.143 147.038 79.8061 147.813 79.2509C148.587 78.6957 149.804 76.1373 150.911 76.8031C152.018 77.469 159.321 76.6925 159.321 76.6925C159.321 76.6925 163.636 78.6938 163.747 80.0293C163.857 81.3648 164.633 81.4736 164.743 82.5859C164.853 83.6982 168.948 92.484 168.948 92.484C168.948 92.484 169.723 94.9224 169.943 95.4851C169.943 95.4851 172.379 89.5917 175.587 92.9266C175.587 92.9266 175.477 90.7021 174.48 89.3628C173.484 88.0236 169.169 77.574 169.169 77.574C169.169 77.574 168.726 76.0172 168.284 75.5727C167.841 75.1281 164.411 71.5699 163.196 71.5699C163.196 71.5699 162.531 69.9005 161.757 69.6792L149.362 69.3453Z" fill="#696880"/>
<path d="M139.402 96.7024C138.537 97.0512 137.598 97.1689 136.674 97.044C135.751 96.9191 134.875 96.5558 134.133 95.9896C133.412 95.4336 132.622 94.9739 131.783 94.6222C130.611 94.1458 129.206 93.7913 128.778 94.5904C128.004 96.0347 138.185 99.5947 138.185 99.5947C138.185 99.5947 139.512 98.8144 139.402 96.7024Z" fill="#696880"/>
<path d="M171.824 96.7024C172.689 97.0512 173.629 97.1689 174.552 97.044C175.476 96.9191 176.351 96.5558 177.093 95.9896C177.814 95.4336 178.604 94.9739 179.443 94.6222C180.615 94.1458 182.021 93.7913 182.448 94.5904C183.223 96.0347 173.041 99.5947 173.041 99.5947C173.041 99.5947 171.714 98.8144 171.824 96.7024Z" fill="#696880"/>
<path d="M152.979 51.0535C152.936 51.4399 152.811 51.8581 152.482 52.0645C152.214 52.2333 151.874 52.2183 151.564 52.2839C151.239 52.3651 150.937 52.5221 150.683 52.7424C150.429 52.9627 150.23 53.24 150.103 53.5519C149.855 54.1815 149.807 54.8726 149.965 55.5308C150.037 55.8538 150.131 56.1716 150.246 56.4817C150.573 57.4046 150.965 58.3181 151.57 59.0871C152.087 59.6963 152.669 60.2473 153.306 60.7302C153.699 61.0528 154.106 61.3829 154.592 61.5349C154.921 61.6225 155.26 61.6672 155.601 61.6681C156.021 61.6887 156.467 61.7018 156.831 61.4917C157.391 61.1672 157.559 60.4489 157.862 59.8749C158.121 59.3853 158.505 58.9727 158.746 58.4737C158.917 58.0824 159.042 57.6727 159.12 57.2527L159.637 54.9437C159.823 54.1071 159.995 53.1618 159.525 52.4434C159.492 52.3841 159.444 52.3343 159.386 52.2989C159.297 52.2625 159.199 52.2521 159.105 52.2689C158.509 52.3091 157.916 52.1728 157.397 51.8769C157.315 51.8359 157.242 51.7784 157.182 51.7081C157.106 51.5893 157.06 51.4533 157.05 51.3123C156.999 51.0259 156.919 50.7455 156.811 50.4758C156.78 50.3794 156.724 50.2933 156.648 50.2263C156.57 50.1762 156.48 50.146 156.387 50.1381C155.588 50.0072 154.782 49.9221 153.974 49.883C153.707 49.8718 153.307 49.7649 153.126 49.9993C152.945 50.2338 153.009 50.7721 152.979 51.0535Z" fill="#FBBEBE"/>
<path opacity="0.1" d="M152.979 51.0535C152.936 51.4399 152.811 51.8581 152.482 52.0645C152.214 52.2333 151.874 52.2183 151.564 52.2839C151.239 52.3651 150.937 52.5221 150.683 52.7424C150.429 52.9627 150.23 53.24 150.103 53.5519C149.855 54.1815 149.807 54.8726 149.965 55.5308C150.037 55.8538 150.131 56.1716 150.246 56.4817C150.573 57.4046 150.965 58.3181 151.57 59.0871C152.087 59.6963 152.669 60.2473 153.306 60.7302C153.699 61.0528 154.106 61.3829 154.592 61.5349C154.921 61.6225 155.26 61.6672 155.601 61.6681C156.021 61.6887 156.467 61.7018 156.831 61.4917C157.391 61.1672 157.559 60.4489 157.862 59.8749C158.121 59.3853 158.505 58.9727 158.746 58.4737C158.917 58.0824 159.042 57.6727 159.12 57.2527L159.637 54.9437C159.823 54.1071 159.995 53.1618 159.525 52.4434C159.492 52.3841 159.444 52.3343 159.386 52.2989C159.297 52.2625 159.199 52.2521 159.105 52.2689C158.509 52.3091 157.916 52.1728 157.397 51.8769C157.315 51.8359 157.242 51.7784 157.182 51.7081C157.106 51.5893 157.06 51.4533 157.05 51.3123C156.999 51.0259 156.919 50.7455 156.811 50.4758C156.78 50.3794 156.724 50.2933 156.648 50.2263C156.57 50.1762 156.48 50.146 156.387 50.1381C155.588 50.0072 154.782 49.9221 153.974 49.883C153.707 49.8718 153.307 49.7649 153.126 49.9993C152.945 50.2338 153.009 50.7721 152.979 51.0535Z" fill="black"/>
<path d="M151.48 52.3815C151.047 52.2521 150.599 52.1808 150.147 52.1696C149.08 52.1433 147.939 52.5147 147.322 53.3906C146.904 54.0222 146.75 54.7938 146.894 55.5383C147.044 56.2773 147.378 56.9661 147.865 57.5397C148.147 57.8407 148.397 58.17 148.611 58.5226C148.906 59.0853 148.914 59.7568 148.985 60.3983C149.171 61.9195 149.817 63.3525 150.075 64.8643C150.332 66.3761 150.108 68.1318 148.919 69.0959C148.72 69.2572 148.479 69.426 148.462 69.683C148.434 70.0938 148.966 70.2701 149.375 70.3076C150.597 70.4258 151.851 70.5402 153.038 70.2232C153.531 70.0919 154.003 69.8874 154.504 69.7936C155.775 69.5554 157.051 70.0431 158.321 70.2795C159.24 70.4311 160.171 70.507 161.103 70.5064C161.321 70.5258 161.54 70.497 161.745 70.422C161.847 70.382 161.933 70.3107 161.991 70.2183C162.05 70.1259 162.077 70.0173 162.07 69.9081C162.03 69.7663 161.954 69.6372 161.85 69.5329C161.208 68.7339 161.012 67.676 160.836 66.665L160.258 63.2606C159.942 61.4449 159.649 59.4735 160.504 57.8417C161.12 56.6694 162.251 55.8441 162.901 54.6905C163.13 54.3413 163.234 53.9237 163.196 53.5069C163.099 52.9273 162.578 52.5128 162.044 52.269C161.018 51.8081 159.855 51.7657 158.798 52.1508C158.817 52.963 158.612 53.7845 158.477 54.5892L158.251 55.9022C158.137 56.6759 157.969 57.4406 157.748 58.1906C157.665 58.49 157.528 58.7712 157.343 59.0196C157.143 59.2423 156.9 59.4206 156.628 59.5429C156.038 59.8325 155.39 59.9808 154.733 59.9762C154.449 59.982 154.166 59.9389 153.897 59.8487C153.453 59.6874 153.093 59.3554 152.745 59.0327C152.631 58.9353 152.529 58.8244 152.441 58.7026C152.35 58.546 152.28 58.3775 152.234 58.2018C152.083 57.7432 151.964 57.2743 151.879 56.7988C151.822 56.4349 151.805 56.0654 151.779 55.6978C151.697 54.6324 151.698 53.4263 151.48 52.3815Z" fill="#FBA403"/>
<path d="M150.357 73.9053C150.357 73.9053 149.914 79.7987 152.68 80.8003C155.446 81.802 153.012 75.9066 153.012 75.9066L152.128 74.1266L150.357 73.9053Z" fill="#FBBEBE"/>
<path d="M159.763 73.9053C159.763 73.9053 160.206 79.7987 157.439 80.8003C154.673 81.802 157.107 75.9066 157.107 75.9066L157.992 74.1266L159.763 73.9053Z" fill="#FBBEBE"/>
<path opacity="0.1" d="M147.922 54.2215L147.038 55.6677C147.038 55.6677 147.812 60.6721 147.922 61.5612C148.017 62.2014 148.165 62.8326 148.365 63.4481C148.365 63.4481 148.475 66.1172 148.475 67.117C148.475 68.1167 149.035 69.7861 149.035 69.7861C149.112 70.7315 149.3 71.6645 149.595 72.5659C150.037 73.7907 150.481 75.235 150.481 75.235C150.481 75.235 151.041 73.6782 153.247 76.0134C153.494 75.7612 153.632 75.4217 153.632 75.0681C153.632 74.7144 153.494 74.3749 153.247 74.1227C153.247 74.1227 152.583 71.1216 152.583 69.5648C152.583 68.0079 151.366 60.5614 151.366 60.5614C151.366 60.5614 150.578 52.1076 147.922 54.2215Z" fill="black"/>
<path d="M147.704 54.1109L146.819 55.5552C146.819 55.5552 147.594 60.5596 147.704 61.4505C147.8 62.0914 147.948 62.7232 148.148 63.3394C148.148 63.3394 148.264 66.0085 148.264 67.012C148.264 68.0155 148.824 69.6811 148.824 69.6811C148.902 70.6265 149.09 71.5594 149.384 72.4609C149.826 73.6838 150.269 75.13 150.269 75.13C150.269 75.13 150.828 73.5732 153.035 75.9084C153.282 75.6564 153.42 75.3169 153.42 74.9631C153.42 74.6093 153.282 74.2697 153.035 74.0177C153.035 74.0177 152.37 71.0166 152.37 69.4579C152.37 67.8992 151.153 60.4545 151.153 60.4545C151.153 60.4545 150.356 52.0064 147.704 54.1109Z" fill="#FBA403"/>
<path opacity="0.1" d="M162.307 53.3307L162.867 53.9928C162.867 53.9928 163.52 57.7799 162.081 62.561L161.639 66.8995C161.639 66.8995 160.864 70.5684 160.752 71.4593C160.64 72.3503 160.642 72.4591 160.422 72.793C160.354 72.8709 160.317 72.9708 160.317 73.0743C160.317 73.1778 160.354 73.2777 160.422 73.3557L159.758 75.8035C159.758 75.8035 158.761 74.5805 156.771 76.1373C156.771 76.1373 156.211 75.2464 156.661 74.468C157.111 73.6895 157.104 73.3557 156.993 73.1343C156.883 72.913 157.436 71.7988 157.436 71.5775C157.436 71.3562 158.21 66.2393 158.21 66.2393C158.21 66.2393 158.543 61.2349 158.875 59.5674C159.078 58.5414 159.073 56.253 159.039 54.6437C159.004 52.9687 161.021 52.059 162.212 53.2388C162.244 53.2632 162.275 53.2969 162.307 53.3307Z" fill="black"/>
<path d="M162.636 53.1094L163.196 53.7715C163.196 53.7715 163.847 57.5566 162.41 62.3397L161.968 66.6763C161.968 66.6763 161.193 70.347 161.081 71.2361C160.969 72.1252 160.971 72.2377 160.749 72.5697C160.682 72.6482 160.646 72.748 160.646 72.8511C160.646 72.9542 160.682 73.054 160.749 73.1325L160.086 75.5709C160.086 75.5709 159.09 74.3479 157.1 75.9047C157.1 75.9047 156.54 75.0157 156.99 74.2372C157.44 73.4588 157.432 73.1249 157.32 72.9017C157.208 72.6785 157.764 71.5681 157.764 71.3449C157.764 71.1217 158.539 66.0067 158.539 66.0067C158.539 66.0067 158.871 61.0023 159.202 59.3348C159.532 57.6673 159.314 52.6629 159.314 52.6629C159.314 52.6629 161.09 51.4437 162.636 53.1094Z" fill="#FBA403"/>
<path d="M155.226 51.5525C157.671 51.5525 159.653 49.5605 159.653 47.1033C159.653 44.6461 157.671 42.6542 155.226 42.6542C152.781 42.6542 150.799 44.6461 150.799 47.1033C150.799 49.5605 152.781 51.5525 155.226 51.5525Z" fill="#FBBEBE"/>
<path opacity="0.1" d="M157.535 40.424C157.322 41.021 156.933 41.5384 156.419 41.9071C155.906 42.2758 155.293 42.4782 154.662 42.4872C154.031 42.4961 153.412 42.3113 152.889 41.9573C152.365 41.6034 151.961 41.0972 151.732 40.5065C153.458 39.8087 155.226 40.4315 155.226 40.4315C156.103 40.1182 156.872 40.1482 157.535 40.424Z" fill="black"/>
<path d="M155.226 40.6547C155.226 40.6547 146.705 37.6536 148.807 52.2203C148.807 52.2203 150.688 53.4432 152.127 52.6648C152.127 52.6648 151.131 42.5361 155.004 42.99C158.877 43.4439 158.214 52.4416 158.214 52.4416C158.214 52.4416 160.428 53.1094 161.09 51.8789C161.753 50.6485 160.87 38.6515 155.226 40.6547Z" fill="#252525"/>
<path opacity="0.1" d="M155.004 42.3222C152.346 42.0164 151.982 46.685 152.017 49.6468C152.051 46.7038 152.544 42.7067 155.004 42.9899C157.77 43.3069 158.221 47.9887 158.255 50.6409C158.285 48.2081 158.02 42.6692 155.004 42.3222Z" fill="black"/>
<path opacity="0.1" d="M148.807 51.5524C148.615 50.2741 148.505 48.9848 148.477 47.6923C148.468 49.2055 148.578 50.7171 148.807 52.2127C148.807 52.2127 150.689 53.4356 152.128 52.6572C152.128 52.6572 152.104 52.4171 152.077 52.0139C150.646 52.7566 148.807 51.5524 148.807 51.5524Z" fill="black"/>
<path opacity="0.1" d="M161.091 51.2186C160.473 52.3572 158.511 51.8582 158.244 51.7813C158.231 52.194 158.214 52.4397 158.214 52.4397C158.214 52.4397 160.428 53.1075 161.091 51.877C161.229 51.6238 161.3 50.9129 161.277 49.9619C161.259 50.5828 161.193 51.0292 161.091 51.2186Z" fill="black"/>
<path d="M78.4424 20.6762C78.4209 20.6762 78.4102 20.6627 78.4102 20.6358L78.4263 15.0906C78.4263 15.069 78.4371 15.0583 78.4586 15.0583H80.0891C80.3796 15.0583 80.646 15.1309 80.8882 15.2762C81.1357 15.4161 81.3321 15.6072 81.4774 15.8493C81.6227 16.0861 81.6953 16.3551 81.6953 16.6565C81.6953 16.8556 81.6657 17.0359 81.6065 17.1973C81.5474 17.3533 81.4774 17.4879 81.3967 17.6009C81.316 17.7085 81.2433 17.7892 81.1787 17.843C81.4693 18.1659 81.6146 18.5453 81.6146 18.9811L81.6227 20.6358C81.6227 20.6627 81.6092 20.6762 81.5823 20.6762H80.6702C80.6487 20.6762 80.6379 20.6681 80.6379 20.652V18.9811C80.6379 18.7874 80.568 18.6206 80.4281 18.4807C80.2936 18.3354 80.1267 18.2627 79.9276 18.2627H79.3949L79.3868 20.6358C79.3868 20.6627 79.3761 20.6762 79.3545 20.6762H78.4424ZM79.3949 17.2941H80.0891C80.2559 17.2941 80.4039 17.2323 80.533 17.1085C80.6622 16.9847 80.7267 16.8341 80.7267 16.6565C80.7267 16.4843 80.6622 16.3363 80.533 16.2125C80.4092 16.0888 80.2613 16.0269 80.0891 16.0269H79.3949V17.2941Z" fill="#FBA403"/>
<path d="M82.3445 20.6762C82.3176 20.6762 82.3041 20.6627 82.3041 20.6358L82.3122 15.0906C82.3122 15.069 82.3229 15.0583 82.3445 15.0583H83.2485C83.27 15.0583 83.2808 15.069 83.2808 15.0906L83.2889 20.6358C83.2889 20.6627 83.2781 20.6762 83.2566 20.6762H82.3445Z" fill="#FBA403"/>
<path d="M84.0392 20.6762C84.0123 20.6762 83.9989 20.6627 83.9989 20.6358L84.015 15.0906C84.015 15.069 84.0258 15.0583 84.0473 15.0583L85.5567 15.0502C85.8527 15.0448 86.1217 15.1148 86.3639 15.2601C86.6114 15.4054 86.8078 15.6018 86.9531 15.8493C87.0984 16.0915 87.171 16.3605 87.171 16.6565V18.9731C87.171 19.2852 87.0957 19.5704 86.945 19.8287C86.7943 20.0816 86.5926 20.2834 86.3396 20.434C86.0867 20.5847 85.8015 20.6627 85.484 20.6681L84.0392 20.6762ZM84.9836 19.6834H85.484C85.6831 19.6834 85.85 19.6134 85.9845 19.4735C86.1244 19.3336 86.1944 19.1668 86.1944 18.9731V16.6484C86.1944 16.4762 86.1298 16.3282 86.0006 16.2045C85.8769 16.0753 85.7289 16.0134 85.5567 16.0188L84.9917 16.0269L84.9836 19.6834Z" fill="#FBA403"/>
<path d="M87.8384 20.6762C87.8169 20.6762 87.8061 20.6627 87.8061 20.6358L87.8142 15.0906C87.8142 15.069 87.8249 15.0583 87.8465 15.0583H90.4375C90.459 15.0583 90.4698 15.0717 90.4698 15.0986V16.0027C90.4698 16.0242 90.459 16.035 90.4375 16.035H88.7828V17.2941H90.4375C90.459 17.2941 90.4698 17.3049 90.4698 17.3264L90.4778 18.2385C90.4778 18.2601 90.4671 18.2708 90.4455 18.2708H88.7828V19.6834H90.4455C90.4671 19.6834 90.4778 19.6968 90.4778 19.7237C90.4778 19.7506 90.4778 20.6439 90.4778 20.6439C90.4778 20.6654 90.4671 20.6762 90.4455 20.6762C90.424 20.6762 87.8384 20.6762 87.8384 20.6762Z" fill="#FBA403"/>
<path d="M83.5643 12.8816L83.5667 12.7987C83.5683 12.7467 83.5732 12.6899 83.5813 12.6281L83.6008 12.4843C83.6049 12.4502 83.6089 12.4193 83.613 12.3917C83.5358 12.4762 83.4737 12.542 83.4266 12.5891L83.2864 12.7256C82.9728 13.0189 82.7859 13.1656 82.7258 13.1656C82.6372 13.1656 82.5442 13.1465 82.4467 13.1083C82.3939 13.0872 82.3639 13.0652 82.3565 13.0425C82.3452 13.014 82.3395 12.9755 82.3395 12.9267C82.3395 12.8771 82.3411 12.8316 82.3444 12.7902C82.3476 12.7488 82.3517 12.7077 82.3565 12.6671C82.3614 12.6257 82.3663 12.5863 82.3712 12.5489C82.3769 12.5107 82.3813 12.4774 82.3846 12.449C82.3927 12.3848 82.3943 12.3527 82.3894 12.3527L81.9361 12.9096C81.7224 13.1607 81.601 13.2996 81.5717 13.3264C81.5091 13.3833 81.4401 13.4117 81.3645 13.4117C81.3272 13.4117 81.2963 13.4024 81.2719 13.3837C81.2475 13.365 81.2354 13.3419 81.2354 13.3142C81.2354 13.259 81.2585 13.2013 81.3048 13.1412L82.387 11.7653L82.5138 11.613C82.6649 11.435 82.764 11.3461 82.8111 11.3461C82.8769 11.3461 82.9395 11.3627 82.9988 11.396C83.0516 11.4253 83.0817 11.4537 83.089 11.4813C83.0922 11.4919 83.0853 11.5411 83.0683 11.6288L83.0256 11.8591C82.9777 12.1159 82.9537 12.2816 82.9537 12.3564C82.9537 12.4303 82.9622 12.4673 82.9793 12.4673C83.0345 12.4673 83.141 12.3767 83.2986 12.1955L83.6934 11.7226C83.7804 11.6227 83.8381 11.5658 83.8665 11.552C83.8746 11.548 83.8864 11.5459 83.9018 11.5459C83.9173 11.5459 83.9343 11.548 83.953 11.552C83.9725 11.5561 83.992 11.5614 84.0115 11.5679C84.0318 11.5744 84.0513 11.5821 84.07 11.591C84.0887 11.6 84.1054 11.6093 84.12 11.6191C84.1517 11.6402 84.1671 11.6576 84.1663 11.6715C84.1663 11.6845 84.163 11.7133 84.1565 11.758C84.15 11.8019 84.1419 11.8555 84.1322 11.9189C84.0647 12.3389 84.0294 12.5826 84.0261 12.6501C84.0237 12.7175 84.0306 12.7597 84.0469 12.7768C84.0639 12.7939 84.0887 12.8024 84.1212 12.8024C84.1805 12.8024 84.2666 12.7671 84.3796 12.6964C84.4559 12.6484 84.5189 12.6245 84.5685 12.6245C84.6188 12.6245 84.644 12.6484 84.644 12.6964C84.644 12.7459 84.6172 12.8061 84.5636 12.8767C84.4864 12.9791 84.371 13.0717 84.2175 13.1546C84.0883 13.2237 83.9656 13.2582 83.8494 13.2582C83.6593 13.2582 83.5643 13.1327 83.5643 12.8816Z" fill="#FBA403"/>
<path d="M85.1169 12.6598C85.1169 12.6972 85.1416 12.7159 85.1912 12.7159C85.292 12.7159 85.4634 12.5903 85.7055 12.3393L85.8237 12.2199C85.9041 12.1411 85.9574 12.1017 85.9834 12.1017C86.0094 12.1017 86.0325 12.1061 86.0528 12.1151C86.0731 12.124 86.091 12.1354 86.1064 12.1492C86.1381 12.1776 86.154 12.2081 86.154 12.2406C86.154 12.2723 86.1503 12.3076 86.143 12.3466C86.1365 12.3848 86.1259 12.4279 86.1113 12.4758C86.0845 12.5652 86.0362 12.685 85.9663 12.8353L85.9163 12.9425L86.1235 12.7549L86.5476 12.3917C86.5907 12.3592 86.6264 12.343 86.6549 12.343C86.7166 12.343 86.7475 12.3726 86.7475 12.4319C86.7475 12.4929 86.7077 12.5713 86.628 12.6671C86.6037 12.6972 86.5773 12.7252 86.5488 12.7512L86.2612 13.001L85.7006 13.4751C85.6511 13.5182 85.6137 13.5523 85.5885 13.5775C85.5584 13.6262 85.5349 13.6624 85.5178 13.6859C85.5016 13.7103 85.4853 13.7359 85.4691 13.7627C85.4528 13.7903 85.437 13.8139 85.4215 13.8334C85.3882 13.8757 85.3549 13.8968 85.3216 13.8968C85.2867 13.8968 85.253 13.8826 85.2205 13.8541C85.1603 13.8013 85.1303 13.7542 85.1303 13.7128C85.1303 13.6713 85.1416 13.623 85.1644 13.5677C85.1871 13.5133 85.2168 13.4507 85.2534 13.3801L85.5117 12.9036C85.3874 13.0157 85.2899 13.09 85.2192 13.1266C85.1486 13.1623 85.0888 13.1859 85.0401 13.1973C84.9922 13.2094 84.941 13.2155 84.8865 13.2155C84.8329 13.2155 84.7858 13.2042 84.7452 13.1814C84.7045 13.1595 84.6708 13.1298 84.644 13.0924C84.592 13.0185 84.566 12.9222 84.566 12.8036C84.566 12.6777 84.5977 12.5534 84.6611 12.4307C84.722 12.3105 84.8024 12.2138 84.9024 12.1407C85.008 12.0627 85.1165 12.0237 85.2278 12.0237C85.3391 12.0237 85.3947 12.0671 85.3947 12.1541C85.3947 12.2085 85.3484 12.2893 85.2558 12.3966C85.1632 12.503 85.1169 12.5908 85.1169 12.6598Z" fill="#FBA403"/>
<rect x="85.5952" y="16.7074" width="0.605074" height="0.579071" fill="#FBA403"/>
<rect x="84.9902" y="17.2865" width="0.605074" height="0.579071" fill="#FBA403"/>
<rect x="85.5952" y="17.8606" width="0.605074" height="0.579071" fill="#FBA403"/>
<rect x="84.9902" y="18.4397" width="0.605074" height="0.579071" fill="#FBA403"/>
<path fill-rule="evenodd" clip-rule="evenodd" d="M77.1198 12.5452C76.2633 12.5452 75.4948 13.0713 75.1849 13.8698L72.9392 19.6555C72.4112 21.0159 73.4149 22.4821 74.8742 22.4821H94.0257C95.485 22.4821 96.4886 21.0159 95.9606 19.6555L93.715 13.8698C93.4051 13.0713 92.6365 12.5452 91.78 12.5452H88.2467V12.084H91.78C92.8269 12.084 93.7662 12.727 94.145 13.7029L96.3906 19.4886C97.036 21.1514 95.8093 22.9433 94.0257 22.9433H74.8742C73.0906 22.9433 71.8639 21.1514 72.5093 19.4886L74.7549 13.7029C75.1337 12.727 76.073 12.084 77.1198 12.084H80.2065V12.5452H77.1198Z" fill="#FBA403"/>
<path d="M84.4497 25.0413V22.8456" stroke="#FBA403" stroke-width="0.712655"/>
</g>
<defs>
<clipPath id="clip0_186_1452">
<rect width="193.13" height="132.554" fill="white" transform="translate(0 0.734131)"/>
</clipPath>
</defs>
</svg>
