<svg width="84" height="40" viewBox="0 0 84 40" fill="none" xmlns="http://www.w3.org/2000/svg">
<path d="M21.0645 32.1803C20.9902 32.1803 20.9531 32.1339 20.9531 32.0411L21.0088 12.915C21.0088 12.8407 21.0459 12.8036 21.1202 12.8036H26.7439C27.7461 12.8036 28.6648 13.0542 29.5 13.5553C30.3538 14.0378 31.0312 14.6967 31.5324 15.5319C32.0335 16.3486 32.284 17.2766 32.284 18.3159C32.284 19.0027 32.182 19.6244 31.9778 20.1812C31.7736 20.7195 31.5324 21.1835 31.254 21.5732C30.9756 21.9444 30.725 22.2228 30.5023 22.4084C31.5045 23.522 32.0056 24.8305 32.0056 26.3339L32.0335 32.0411C32.0335 32.1339 31.9871 32.1803 31.8943 32.1803H28.7484C28.6741 32.1803 28.637 32.1525 28.637 32.0968V26.3339C28.637 25.6657 28.3957 25.0904 27.9132 24.6078C27.4491 24.1067 26.8738 23.8561 26.1871 23.8561H24.3496L24.3218 32.0411C24.3218 32.1339 24.2847 32.1803 24.2104 32.1803H21.0645ZM24.3496 20.5153H26.7439C27.3192 20.5153 27.8296 20.3019 28.2751 19.875C28.7205 19.4481 28.9432 18.9284 28.9432 18.3159C28.9432 17.722 28.7205 17.2116 28.2751 16.7847C27.8482 16.3579 27.3378 16.1444 26.7439 16.1444H24.3496V20.5153Z" fill="#FBA403"/>
<path d="M34.523 32.1803C34.4302 32.1803 34.3838 32.1339 34.3838 32.0411L34.4116 12.915C34.4116 12.8407 34.4488 12.8036 34.523 12.8036H37.6411C37.7153 12.8036 37.7524 12.8407 37.7524 12.915L37.7803 32.0411C37.7803 32.1339 37.7432 32.1803 37.6689 32.1803H34.523Z" fill="#FBA403"/>
<path d="M40.3683 32.1803C40.2755 32.1803 40.2291 32.1339 40.2291 32.0411L40.2848 12.915C40.2848 12.8407 40.3219 12.8036 40.3962 12.8036L45.6023 12.7758C46.6231 12.7572 47.5511 12.9985 48.3863 13.4996C49.24 14.0007 49.9175 14.6782 50.4186 15.5319C50.9197 16.3671 51.1703 17.2951 51.1703 18.3159V26.306C51.1703 27.3825 50.9104 28.3662 50.3908 29.2571C49.8711 30.1294 49.1751 30.8254 48.3028 31.3451C47.4304 31.8648 46.4468 32.1339 45.3517 32.1525L40.3683 32.1803ZM43.6256 28.756H45.3517C46.0384 28.756 46.6138 28.5147 47.0778 28.0321C47.5604 27.5496 47.8016 26.9742 47.8016 26.306V18.2881C47.8016 17.6942 47.5789 17.1838 47.1335 16.7569C46.7066 16.3115 46.1962 16.098 45.6023 16.1166L43.6535 16.1444L43.6256 28.756Z" fill="#FBA403"/>
<path d="M53.4721 32.1803C53.3979 32.1803 53.3607 32.1339 53.3607 32.0411L53.3886 12.915C53.3886 12.8407 53.4257 12.8036 53.4999 12.8036H62.4366C62.5109 12.8036 62.548 12.85 62.548 12.9428V16.0609C62.548 16.1351 62.5109 16.1723 62.4366 16.1723H56.7294V20.5153H62.4366C62.5109 20.5153 62.548 20.5524 62.548 20.6267L62.5758 23.7726C62.5758 23.8468 62.5387 23.884 62.4645 23.884H56.7294V28.756H62.4645C62.5387 28.756 62.5758 28.8024 62.5758 28.8952C62.5758 28.988 62.5758 32.0689 62.5758 32.0689C62.5758 32.1432 62.5387 32.1803 62.4645 32.1803C62.3902 32.1803 53.4721 32.1803 53.4721 32.1803Z" fill="#FBA403"/>
<path d="M38.7304 5.29626L38.7388 5.01043C38.7444 4.83108 38.7612 4.63492 38.7893 4.42195L38.8565 3.92596C38.8705 3.80826 38.8845 3.70177 38.8985 3.6065C38.6323 3.89793 38.418 4.12492 38.2554 4.28745L37.772 4.75822C36.6904 5.76984 36.0459 6.27564 35.8385 6.27564C35.533 6.27564 35.2122 6.20979 34.8759 6.07808C34.6938 6.00523 34.5901 5.92957 34.5649 5.8511C34.5256 5.75302 34.506 5.61992 34.506 5.45178C34.506 5.28084 34.5116 5.12392 34.5228 4.981C34.534 4.83809 34.548 4.69657 34.5649 4.55646C34.5817 4.41355 34.5985 4.27764 34.6153 4.14873C34.6349 4.01703 34.6503 3.90214 34.6615 3.80406C34.6896 3.58268 34.6952 3.47199 34.6784 3.47199L33.1147 5.39293C32.3777 6.25883 31.9588 6.73801 31.8579 6.83049C31.6421 7.02665 31.4039 7.12473 31.1433 7.12473C31.0144 7.12473 30.9079 7.0925 30.8239 7.02805C30.7398 6.9636 30.6978 6.88373 30.6978 6.78846C30.6978 6.5979 30.7776 6.39894 30.9373 6.19158L34.6699 1.44596L35.1071 0.92054C35.6283 0.306847 35.9702 0 36.1327 0C36.3597 0 36.5755 0.0574462 36.78 0.172339C36.9622 0.27322 37.0659 0.371298 37.0911 0.466575C37.1023 0.503004 37.0785 0.67254 37.0196 0.975184L36.8725 1.76962C36.7072 2.65513 36.6245 3.22679 36.6245 3.4846C36.6245 3.73961 36.6539 3.86711 36.7128 3.86711C36.9033 3.86711 37.2704 3.55466 37.8141 2.92975L39.176 1.29884C39.4758 0.954167 39.6748 0.758009 39.7728 0.710371C39.8009 0.69636 39.8415 0.689354 39.8947 0.689354C39.948 0.689354 40.0068 0.69636 40.0713 0.710371C40.1385 0.724382 40.2058 0.742597 40.2731 0.765015C40.3431 0.787433 40.4104 0.814054 40.4748 0.844879C40.5393 0.875704 40.5967 0.90793 40.6472 0.941557C40.7564 1.01442 40.8097 1.07466 40.8069 1.1223C40.8069 1.16714 40.7957 1.26662 40.7733 1.42074C40.7508 1.57206 40.7228 1.75701 40.6892 1.97559C40.4566 3.42435 40.3347 4.26503 40.3235 4.49761C40.3151 4.7302 40.3389 4.87592 40.3949 4.93477C40.4538 4.99361 40.5393 5.02304 40.6514 5.02304C40.8559 5.02304 41.153 4.90114 41.5425 4.65734C41.8059 4.49201 42.0231 4.40934 42.194 4.40934C42.3677 4.40934 42.4546 4.49201 42.4546 4.65734C42.4546 4.82828 42.3621 5.03565 42.1772 5.27944C41.911 5.63253 41.513 5.95198 40.9834 6.23781C40.5379 6.476 40.1147 6.5951 39.714 6.5951C39.0583 6.5951 38.7304 6.16215 38.7304 5.29626Z" fill="#FBA403"/>
<path d="M44.0855 4.53124C44.0855 4.66015 44.171 4.7246 44.3419 4.7246C44.6894 4.7246 45.2807 4.29165 46.1157 3.42575L46.5235 3.01382C46.8009 2.742 46.9844 2.60609 47.0741 2.60609C47.1638 2.60609 47.2437 2.62151 47.3137 2.65233C47.3838 2.68316 47.4454 2.72239 47.4987 2.77003C47.6079 2.8681 47.6626 2.97319 47.6626 3.08528C47.6626 3.19457 47.65 3.31647 47.6248 3.45097C47.6023 3.58268 47.5659 3.7312 47.5155 3.89653C47.423 4.20478 47.2563 4.61811 47.0153 5.13653L46.8429 5.50643L47.5575 4.85911L49.0203 3.6065C49.1688 3.49441 49.2921 3.43836 49.3902 3.43836C49.6031 3.43836 49.7096 3.54065 49.7096 3.74521C49.7096 3.95538 49.5723 4.2258 49.2977 4.55646C49.2136 4.66015 49.1226 4.75682 49.0245 4.84649L48.0325 5.70819L46.0989 7.3433C45.928 7.49182 45.7991 7.60952 45.7122 7.69638C45.6085 7.86452 45.5273 7.98922 45.4684 8.07049C45.4124 8.15455 45.3563 8.24282 45.3003 8.3353C45.2442 8.43058 45.1896 8.51184 45.1364 8.57909C45.0215 8.72481 44.9066 8.79767 44.7917 8.79767C44.6712 8.79767 44.5549 8.74863 44.4428 8.65055C44.2354 8.46841 44.1318 8.30587 44.1318 8.16296C44.1318 8.02005 44.171 7.85331 44.2494 7.66276C44.3279 7.47501 44.4302 7.25923 44.5563 7.01544L45.4474 5.37192C45.0187 5.75863 44.6824 6.01503 44.4386 6.14114C44.1948 6.26443 43.9888 6.3457 43.8207 6.38493C43.6554 6.42696 43.4788 6.44798 43.2911 6.44798C43.1061 6.44798 42.9436 6.40875 42.8035 6.33029C42.6634 6.25463 42.5471 6.15234 42.4546 6.02344C42.2753 5.76844 42.1856 5.43637 42.1856 5.02724C42.1856 4.59289 42.2949 4.16415 42.5135 3.74101C42.7236 3.32627 43.001 2.99281 43.3457 2.7406C43.71 2.47159 44.0841 2.33708 44.468 2.33708C44.8519 2.33708 45.0439 2.487 45.0439 2.78684C45.0439 2.97459 44.8842 3.25341 44.5647 3.62331C44.2452 3.99041 44.0855 4.29305 44.0855 4.53124Z" fill="#FBA403"/>
<rect x="45.7358" y="18.4915" width="2.08696" height="1.99728" fill="#FBA403"/>
<rect x="43.6489" y="20.4888" width="2.08696" height="1.99728" fill="#FBA403"/>
<rect x="45.7358" y="22.4691" width="2.08696" height="1.99728" fill="#FBA403"/>
<rect x="43.6489" y="24.4664" width="2.08696" height="1.99728" fill="#FBA403"/>
<path fill-rule="evenodd" clip-rule="evenodd" d="M16.5034 4.13582C13.5493 4.13582 10.8985 5.95041 9.82961 8.70438L2.08422 28.6599C0.26301 33.3522 3.72476 38.4091 8.75804 38.4091H74.8135C79.8468 38.4091 83.3085 33.3522 81.4873 28.6599L73.7419 8.70437C72.673 5.9504 70.0222 4.13582 67.0681 4.13582H54.8813V2.54495H67.0681C70.6787 2.54495 73.9186 4.76278 75.225 8.12875L82.9704 28.0843C85.1963 33.8193 80.9653 40 74.8135 40H8.75804C2.60625 40 -1.62477 33.8193 0.601151 28.0843L8.34654 8.12875C9.65299 4.76279 12.8928 2.54495 16.5034 2.54495H27.1496V4.13582H16.5034Z" fill="#FBA403"/>
</svg>
