<svg width="41" height="29" viewBox="0 0 41 29" fill="none" xmlns="http://www.w3.org/2000/svg">
<path d="M27.4793 7.78796L25.797 8.66296L30.0028 12.4546H23.2735V10.7046H20.75V12.4546H5.60904C3.74166 12.4546 2.24438 13.493 2.24438 14.788V18.288H5.60904C5.60904 19.2162 6.14077 20.1065 7.08727 20.7628C8.03376 21.4192 9.31748 21.788 10.656 21.788C11.9946 21.788 13.2783 21.4192 14.2248 20.7628C15.1713 20.1065 15.703 19.2162 15.703 18.288H25.797C25.797 19.2162 26.3287 20.1065 27.2752 20.7628C28.2217 21.4192 29.5054 21.788 30.8439 21.788C32.1825 21.788 33.4662 21.4192 34.4127 20.7628C35.3592 20.1065 35.8909 19.2162 35.8909 18.288H39.2556V14.788C39.2556 13.493 37.7583 12.4546 35.8909 12.4546H32.5263L27.4793 7.78796ZM10.656 16.538C11.3253 16.538 11.9672 16.7223 12.4404 17.0505C12.9136 17.3787 13.1795 17.8238 13.1795 18.288C13.1795 18.7521 12.9136 19.1972 12.4404 19.5254C11.9672 19.8536 11.3253 20.038 10.656 20.038C9.98675 20.038 9.34489 19.8536 8.87164 19.5254C8.3984 19.1972 8.13253 18.7521 8.13253 18.288C8.13253 17.8238 8.3984 17.3787 8.87164 17.0505C9.34489 16.7223 9.98675 16.538 10.656 16.538ZM30.8439 16.538C31.5132 16.538 32.1551 16.7223 32.6283 17.0505C33.1016 17.3787 33.3674 17.8238 33.3674 18.288C33.3674 18.7521 33.1016 19.1972 32.6283 19.5254C32.1551 19.8536 31.5132 20.038 30.8439 20.038C30.1747 20.038 29.5328 19.8536 29.0596 19.5254C28.5863 19.1972 28.3205 18.7521 28.3205 18.288C28.3205 17.8238 28.5863 17.3787 29.0596 17.0505C29.5328 16.7223 30.1747 16.538 30.8439 16.538Z" fill="#FBA403"/>
</svg>
