<svg width="159" height="38" viewBox="0 0 159 38" fill="none" xmlns="http://www.w3.org/2000/svg">
<path d="M18.2855 1.59448C8.59054 1.59448 0.731445 9.45357 0.731445 19.1485C0.731445 28.8435 8.59054 36.7026 18.2855 36.7026C27.9804 36.7026 35.8395 28.8435 35.8395 19.1485C35.8395 9.45357 27.9804 1.59448 18.2855 1.59448ZM22.4436 13.7251H19.805C19.4923 13.7251 19.1449 14.1365 19.1449 14.6832V16.5886H22.4454L21.9462 19.3058H19.1449V27.4629H16.0309V19.3058H13.2058V16.5886H16.0309V14.9904C16.0309 12.6974 17.6217 10.8341 19.805 10.8341H22.4436V13.7251Z" fill="white"/>
<path d="M140.189 1.59448C130.494 1.59448 122.635 9.45357 122.635 19.1485C122.635 28.8435 130.494 36.7026 140.189 36.7026C149.884 36.7026 157.743 28.8435 157.743 19.1485C157.743 9.45357 149.884 1.59448 140.189 1.59448ZM147.329 15.9742C147.336 16.1241 147.338 16.2741 147.338 16.4203C147.338 20.9917 143.862 26.2597 137.502 26.2597C135.623 26.2629 133.783 25.7231 132.203 24.7055C132.472 24.7384 132.748 24.7512 133.028 24.7512C134.648 24.7512 136.138 24.2008 137.321 23.2719C136.6 23.2577 135.902 23.019 135.323 22.589C134.744 22.1589 134.314 21.559 134.092 20.8728C134.61 20.9713 135.143 20.9507 135.652 20.8125C134.869 20.6543 134.166 20.2302 133.66 19.6124C133.155 18.9945 132.878 18.2207 132.878 17.4224V17.3803C133.344 17.6381 133.878 17.7954 134.445 17.8137C133.711 17.3253 133.192 16.5752 132.993 15.7166C132.794 14.858 132.931 13.9559 133.375 13.1948C134.244 14.2626 135.327 15.1362 136.554 15.759C137.782 16.3817 139.127 16.7397 140.501 16.8098C140.326 16.068 140.402 15.2892 140.715 14.5945C141.029 13.8999 141.563 13.3282 142.235 12.9685C142.907 12.6088 143.679 12.4811 144.431 12.6054C145.183 12.7296 145.872 13.0988 146.393 13.6556C147.167 13.5025 147.909 13.2186 148.587 12.8163C148.329 13.6174 147.789 14.2977 147.068 14.7308C147.753 14.6482 148.422 14.4639 149.053 14.184C148.59 14.8787 148.006 15.4849 147.329 15.9742Z" fill="white"/>
<path d="M84.7228 19.1485C84.7228 20.6034 84.1448 21.9987 83.1161 23.0275C82.0873 24.0562 80.692 24.6342 79.2372 24.6342C77.7823 24.6342 76.387 24.0562 75.3582 23.0275C74.3295 21.9987 73.7515 20.6034 73.7515 19.1485C73.7515 18.8358 73.7844 18.5305 73.8411 18.2343H71.923V25.5429C71.923 26.0513 72.3344 26.4627 72.8427 26.4627H85.6334C85.877 26.4622 86.1105 26.3651 86.2826 26.1927C86.4547 26.0202 86.5513 25.7866 86.5513 25.5429V18.2343H84.6332C84.6899 18.5305 84.7228 18.8358 84.7228 19.1485ZM79.2372 22.8056C79.7175 22.8055 80.1932 22.7108 80.6369 22.5268C81.0807 22.3429 81.4839 22.0733 81.8235 21.7336C82.1631 21.3938 82.4324 20.9905 82.6161 20.5466C82.7999 20.1028 82.8944 19.6271 82.8942 19.1467C82.8941 18.6663 82.7994 18.1907 82.6154 17.7469C82.4315 17.3031 82.162 16.9 81.8222 16.5604C81.4824 16.2208 81.0791 15.9514 80.6353 15.7677C80.1914 15.584 79.7157 15.4895 79.2353 15.4896C78.2652 15.4898 77.3348 15.8755 76.649 16.5617C75.9632 17.2478 75.578 18.1784 75.5782 19.1485C75.5785 20.1187 75.9641 21.049 76.6503 21.7349C77.3365 22.4207 78.267 22.8059 79.2372 22.8056ZM83.6257 15.3086H85.8181C85.9637 15.3086 86.1035 15.2508 86.2066 15.148C86.3098 15.0452 86.368 14.9057 86.3685 14.76V12.5676C86.3685 12.4216 86.3105 12.2816 86.2073 12.1784C86.1041 12.0752 85.9641 12.0172 85.8181 12.0172H83.6257C83.4797 12.0172 83.3397 12.0752 83.2365 12.1784C83.1333 12.2816 83.0753 12.4216 83.0753 12.5676V14.76C83.0771 15.0617 83.324 15.3086 83.6257 15.3086ZM79.2372 1.59448C74.5815 1.59448 70.1166 3.44392 66.8246 6.73594C63.5325 10.028 61.6831 14.4929 61.6831 19.1485C61.6831 23.8041 63.5325 28.2691 66.8246 31.5611C70.1166 34.8531 74.5815 36.7026 79.2372 36.7026C81.5424 36.7026 83.825 36.2485 85.9548 35.3663C88.0845 34.4842 90.0197 33.1912 91.6497 31.5611C93.2798 29.9311 94.5728 27.9959 95.455 25.8662C96.3371 23.7364 96.7912 21.4538 96.7912 19.1485C96.7912 16.8433 96.3371 14.5606 95.455 12.4309C94.5728 10.3011 93.2798 8.36599 91.6497 6.73594C90.0197 5.1059 88.0845 3.81288 85.9548 2.9307C83.825 2.04853 81.5424 1.59448 79.2372 1.59448ZM88.3799 26.2597C88.3799 27.377 87.4656 28.2913 86.3484 28.2913H72.1259C71.0087 28.2913 70.0944 27.377 70.0944 26.2597V12.0373C70.0944 10.9201 71.0087 10.0058 72.1259 10.0058H86.3484C87.4656 10.0058 88.3799 10.9201 88.3799 12.0373V26.2597Z" fill="white"/>
</svg>
