<svg width="43" height="29" viewBox="0 0 43 29" fill="none" xmlns="http://www.w3.org/2000/svg">
<path d="M5.82664 8.95471C3.86274 8.95471 2.28809 9.99305 2.28809 11.288V20.6214H5.82664C5.82664 21.5496 6.38585 22.4399 7.38126 23.0963C8.37667 23.7526 9.72674 24.1214 11.1345 24.1214C12.5422 24.1214 13.8922 23.7526 14.8877 23.0963C15.8831 22.4399 16.4423 21.5496 16.4423 20.6214H27.0579C27.0579 21.5496 27.6171 22.4399 28.6126 23.0963C29.608 23.7526 30.958 24.1214 32.3658 24.1214C33.7735 24.1214 35.1235 23.7526 36.119 23.0963C37.1144 22.4399 37.6736 21.5496 37.6736 20.6214H41.2121V15.9547C41.2121 14.6597 39.6375 13.6214 37.6736 13.6214L32.3658 8.95471H5.82664ZM5.82664 10.7047H12.9037V13.6214H5.82664V10.7047ZM16.4423 10.7047H23.5194V13.6214H16.4423V10.7047ZM27.0579 10.7047H31.4811L34.9489 13.6214H27.0579V10.7047ZM11.1345 18.8714C11.8383 18.8714 12.5134 19.0558 13.0111 19.3839C13.5088 19.7121 13.7884 20.1573 13.7884 20.6214C13.7884 21.0855 13.5088 21.5306 13.0111 21.8588C12.5134 22.187 11.8383 22.3714 11.1345 22.3714C10.4306 22.3714 9.75556 22.187 9.25786 21.8588C8.76015 21.5306 8.48055 21.0855 8.48055 20.6214C8.48055 20.1573 8.76015 19.7121 9.25786 19.3839C9.75556 19.0558 10.4306 18.8714 11.1345 18.8714ZM32.3658 18.8714C33.0696 18.8714 33.7446 19.0558 34.2424 19.3839C34.7401 19.7121 35.0197 20.1573 35.0197 20.6214C35.0197 21.0855 34.7401 21.5306 34.2424 21.8588C33.7446 22.187 33.0696 22.3714 32.3658 22.3714C31.6619 22.3714 30.9869 22.187 30.4892 21.8588C29.9915 21.5306 29.7118 21.0855 29.7118 20.6214C29.7118 20.1573 29.9915 19.7121 30.4892 19.3839C30.9869 19.0558 31.6619 18.8714 32.3658 18.8714Z" fill="#FBA403"/>
</svg>
